nColumns=19
nRows=118
DataType=double
version=3
OpenSimVersion=4.1
endheader
time	ground_force_1_vx	ground_force_1_vy	ground_force_1_vz	ground_force_1_px	ground_force_1_py	ground_force_1_pz	ground_force_1_mx	ground_force_1_my	ground_force_1_mz	ground_force_2_vx	ground_force_2_vy	ground_force_2_vz	ground_force_2_px	ground_force_2_py	ground_force_2_pz	ground_force_2_mx	ground_force_2_my	ground_force_2_mz
0.341667	-0.181394	12.8103	-0.540263	-0.000966642	0	0.000250252	0	0	0	0	0	0	-0.000966642	0	0.000250252	0	0	0
0.35	-3.89609	32.3985	-2.60573	1.10384	0	-0.234692	0	-2.9074	0	0	0	0	-0.000966642	0	0.000250252	0	0	0
0.358333	-9.20309	91.5086	-4.51778	1.10865	0	-0.274024	-0	4.85043	-0	0	0	0	-0.000966642	0	0.000250252	0	0	0
0.366667	-12.1134	228.81	-4.36358	1.09757	0	-0.290289	-0	13.7263	-0	0	0	0	-0.000966642	0	0.000250252	0	0	0
0.375	-12.5674	474.36	2.21614	1.08701	0	-0.297261	-0	16.3743	-0	0	0	0	-0.000966642	0	0.000250252	0	0	0
0.383333	-22.6691	796.127	19.1027	1.0778	0	-0.300111	-0	7.21205	-0	0	0	0	-0.000966642	0	0.000250252	0	0	0
0.391667	-58.8018	1084.5	43.3833	1.07016	0	-0.301021	0	-10.0362	0	0	0	0	-0.000966642	0	0.000250251	0	0	0
0.4	-122.203	1252.74	63.1721	1.06326	0	-0.301406	0	-22.5337	0	0	0	0	-0.000966642	0	0.000250251	0	0	0
0.408333	-190.71	1329.86	66.5269	1.05407	0	-0.302357	0	-19.5316	0	0	0	0	-0.000966642	0	0.000250251	0	0	0
0.416667	-235.121	1403.62	54.3758	1.03933	0	-0.303626	0	-3.98353	0	0	0	0	-0.000966642	0	0.00025025	0	0	0
0.425	-241.791	1518.61	40.5668	1.01897	0	-0.303651	-0	9.71107	-0	0	0	0	-0.000966642	0	0.00025025	0	0	0
0.433333	-218.846	1655.29	36.4728	0.995797	0	-0.301858	-0	10.8677	-0	0	0	0	-0.000966642	0	0.00025025	0	0	0
0.441667	-183.284	1766.99	39.0652	0.972256	0	-0.299677	-0	3.07012	-0	0	0	0	-0.000966643	0	0.000250249	0	0	0
0.45	-143.927	1823.98	37.6348	0.948829	0	-0.298531	0	-2.19662	0	0	0	0	-0.000966643	0	0.000250248	0	0	0
0.458333	-103.959	1827.37	29.0162	0.925556	0	-0.298275	-0	0.257643	-0	0	0	0	-0.000966643	0	0.000250248	0	0	0
0.466667	-65.9197	1794.55	20.5865	0.90259	0	-0.297517	-0	5.3258	-0	0	0	0	-0.000966643	0	0.000250247	0	0	0
0.475	-29.214	1736.64	18.9035	0.879722	0	-0.29537	-0	6.75878	-0	0	0	0	-0.000966643	0	0.000250246	0	0	0
0.483333	11.6	1649.98	21.6165	0.856157	0	-0.292771	-0	5.19932	-0	0	0	0	-0.000966643	0	0.000250246	0	0	0
0.491667	58.9566	1532.28	23.3896	0.83091	0	-0.291363	-0	4.80355	-0	0	0	0	-0.000966643	0	0.000250245	0	0	0
0.5	108.028	1392.72	25.1433	0.804106	0	-0.291347	-0	5.55205	-0	0	0	0	-0.000966643	0	0.000250244	0	0	0
0.508333	151.945	1242.83	32.1529	0.77676	0	-0.291374	-0	3.36763	-0	0	0	0	-0.000966643	0	0.000250243	0	0	0
0.516667	185.317	1085.52	44.5768	0.749705	0	-0.290648	0	-2.8574	0	0	0	0	-0.000966643	0	0.000250242	0	0	0
0.525	204.816	917.456	55.2352	0.723366	0	-0.290009	0	-8.53674	0	0	0	0	-0.000966644	0	0.000250241	0	0	0
0.533333	208.57	741.027	57.7803	0.697498	0	-0.290577	0	-9.0792	0	0	0	0	-0.000966644	0	0.00025024	0	0	0
0.541667	194.399	569.647	53.2569	0.672509	0	-0.291761	0	-5.54972	0	0	0	0	-0.000966644	0	0.000250239	0	0	0
0.55	164.13	418.812	46.6513	0.651341	0	-0.290776	0	-2.46891	0	0	0	0	-0.000966644	0	0.000250238	0	0	0
0.558333	125.434	294.047	39.7065	0.63834	0	-0.284948	0	-1.57689	0	0	0	0	-0.000966644	0	0.000250237	0	0	0
0.566667	87.5314	192.573	30.2943	0.634017	0	-0.275193	0	-0.566488	0	0	0	0	-0.000966644	0	0.000250236	0	0	0
0.575	56.4454	112.782	18.0802	0.631799	0	-0.265338	-0	2.14235	-0	0	0	0	-0.000966644	0	0.000250235	0	0	0
0.583333	32.7313	56.8476	7.33746	0.628848	0	-0.255556	-0	4.19751	-0	0	0	0	-0.000966645	0	0.000250233	0	0	0
0.591667	15.975	25.9272	2.56407	0.650746	0	-0.222945	-0	2.46754	-0	0	0	0	-0.000966645	0	0.000250232	0	0	0
0.6	6.46029	14.3236	3.08687	-0.000966649	0	0.000250235	0	0	0	0	0	0	-0.000966645	0	0.000250231	0	0	0
0.608333	2.71456	11.051	4.14843	-0.000966649	0	0.000250234	0	0	0	0	0	0	-0.000966645	0	0.000250229	0	0	0
0.616667	0	0	0	-0.00096665	0	0.000250232	0	0	0	0	0	0	-0.000966645	0	0.000250228	0	0	0
0.625	0	0	0	-0.00096665	0	0.000250231	0	0	0	0	0	0	-0.000966645	0	0.000250227	0	0	0
0.633333	0	0	0	-0.000966651	0	0.00025023	0	0	0	0	0	0	-0.000966646	0	0.000250225	0	0	0
0.641667	0	0	0	-0.000966651	0	0.000250229	0	0	0	0	0	0	-0.000966646	0	0.000250223	0	0	0
0.65	0	0	0	-0.000966652	0	0.000250228	0	0	0	0	0	0	-0.000966646	0	0.000250222	0	0	0
0.658333	0	0	0	-0.000966652	0	0.000250226	0	0	0	0	0	0	-0.000966646	0	0.00025022	0	0	0
0.666667	0	0	0	-0.000966653	0	0.000250225	0	0	0	0	0	0	-0.000966646	0	0.000250219	0	0	0
0.675	0	0	0	-0.000966653	0	0.000250223	0	0	0	0	0	0	-0.000966647	0	0.000250217	0	0	0
0.683333	0	0	0	-0.000966654	0	0.000250222	0	0	0	0	0	0	-0.000966647	0	0.000250215	0	0	0
0.691667	0	0	0	-0.000966654	0	0.000250221	0	0	0	-0.0751095	13.6783	-0.330271	-0.000966647	0	0.000250213	0	0	0
0.7	0	0	0	-0.000966655	0	0.000250219	0	0	0	-2.66276	26.8805	-3.9441	1.11276	0	-0.219421	0	-2.61397	0
0.708333	0	0	0	-0.000966655	0	0.000250218	0	0	0	-7.21469	71.5674	-8.93312	1.10019	0	-0.280815	0	-0.664104	0
0.716667	0	0	0	-0.000966656	0	0.000250216	0	0	0	-13.1009	186.006	-13.8395	1.07314	0	-0.296475	0	-1.01405	0
0.725	0	0	0	-0.000966657	0	0.000250214	0	0	0	-23.0975	408.101	-18.3872	1.0608	0	-0.298008	0	-4.95516	0
0.733333	0	0	0	-0.000966657	0	0.000250213	0	0	0	-44.9074	730.131	-23.7176	1.05477	0	-0.295749	0	-9.99961	0
0.741667	0	0	0	-0.000966658	0	0.000250211	0	0	0	-83.3921	1055.33	-32.086	1.04906	0	-0.292785	0	-10.752	0
0.75	0	0	0	-0.000966659	0	0.000250209	0	0	0	-134.275	1268.61	-45.4891	1.04137	0	-0.290756	0	-3.53502	0
0.758333	0	0	0	-0.000966659	0	0.000250208	0	0	0	-183.607	1367.59	-61.7565	1.03055	0	-0.290858	-0	8.37425	-0
0.766667	0	0	0	-0.00096666	0	0.000250206	0	0	0	-213.724	1441.04	-72.1623	1.01539	0	-0.292573	-0	15.3257	-0
0.775	0	0	0	-0.000966661	0	0.000250204	0	0	0	-217.386	1548.51	-67.8649	0.995937	0	-0.293626	-0	10.0939	-0
0.783333	0	0	0	-0.000966661	0	0.000250202	0	0	0	-199.021	1676.07	-50.8186	0.973689	0	-0.293347	0	-3.38579	0
0.791667	0	0	0	-0.000966662	0	0.000250201	0	0	0	-168.429	1777.9	-33.8075	0.950544	0	-0.293475	0	-12.8809	0
0.8	0	0	0	-0.000966663	0	0.000250199	0	0	0	-133.177	1828.79	-26.4455	0.927669	0	-0.295294	0	-11.0187	0
0.808333	0	0	0	-0.000966663	0	0.000250197	0	0	0	-95.1532	1835.07	-24.824	0.904951	0	-0.29796	0	-3.20704	0
0.816667	0	0	0	-0.000966664	0	0.000250195	0	0	0	-57.6476	1811.99	-19.0107	0.882364	0	-0.299803	0	-0.168631	0
0.825	0	0	0	-0.000966665	0	0.000250193	0	0	0	-20.9465	1762.96	-7.66927	0.859881	0	-0.300565	0	-4.75436	0
0.833333	0	0	0	-0.000966666	0	0.000250191	0	0	0	20.9858	1680.33	0.365156	0.836611	0	-0.301632	0	-9.87441	0
0.841667	0	0	0	-0.000966666	0	0.000250189	0	0	0	70.1176	1564.05	-1.66314	0.811413	0	-0.30376	0	-8.90619	0
0.85	0	0	0	-0.000966667	0	0.000250187	0	0	0	120.786	1426.78	-10.4036	0.784452	0	-0.305776	0	-3.71832	0
0.858333	0	0	0	-0.000966668	0	0.000250185	0	0	0	164.943	1277.94	-18.6017	0.757179	0	-0.306118	0	-0.45579	0
0.866667	0	0	0	-0.000966669	0	0.000250183	0	0	0	197.793	1116.21	-24.7037	0.730486	0	-0.304851	0	-0.676214	0
0.875	0	0	0	-0.00096667	0	0.000250181	0	0	0	216.388	938.342	-32.2073	0.704243	0	-0.30356	0	-0.390109	0
0.883333	0	0	0	-0.00096667	0	0.000250179	0	0	0	217.987	750.083	-41.5966	0.678019	0	-0.303485	-0	2.99475	-0
0.891667	0	0	0	-0.000966671	0	0.000250177	0	0	0	200.772	568.079	-47.5679	0.652815	0	-0.303946	-0	6.52284	-0
0.9	0	0	0	-0.000966672	0	0.000250174	0	0	0	167.094	408.363	-45.0926	0.632485	0	-0.302777	-0	5.76552	-0
0.908333	0	0	0	-0.000966673	0	0.000250172	0	0	0	125.323	276.045	-35.4128	0.620847	0	-0.298718	-0	0.739877	-0
0.916667	0	0	0	-0.000966674	0	0.00025017	0	0	0	84.4873	170.163	-24.254	0.61735	0	-0.293429	0	-4.35841	0
0.925	0	0	0	-0.000966675	0	0.000250168	0	0	0	50.6425	91.9553	-15.5219	0.61918	0	-0.289594	0	-6.44268	0
0.933333	0	0	0	-0.000966675	0	0.000250165	0	0	0	26.5739	43.0745	-8.8631	0.634205	0	-0.280992	0	-6.39149	0
0.941667	0	0	0	-0.000966676	0	0.000250163	0	0	0	11.9914	19.7408	-2.9228	0.70287	0	-0.229189	0	-6.47515	0
0.95	0	0	0	-0.000966677	0	0.000250161	0	0	0	5.17785	11.8769	1.56297	-0.000966657	0	0.00025014	0	0	0
0.958333	0	0	0	-0.000966678	0	0.000250159	0	0	0	0	0	0	-0.000966657	0	0.000250137	0	0	0
0.966667	0	0	0	-0.000966679	0	0.000250156	0	0	0	0	0	0	-0.000966657	0	0.000250134	0	0	0
0.975	0	0	0	-0.00096668	0	0.000250154	0	0	0	0	0	0	-0.000966658	0	0.000250131	0	0	0
0.983333	0	0	0	-0.000966681	0	0.000250151	0	0	0	0	0	0	-0.000966658	0	0.000250128	0	0	0
0.991667	0	0	0	-0.000966682	0	0.000250149	0	0	0	0	0	0	-0.000966658	0	0.000250125	0	0	0
1	0	0	0	-0.000966683	0	0.000250147	0	0	0	0	0	0	-0.000966659	0	0.000250122	0	0	0
1.00833	0	0	0	-0.000966684	0	0.000250144	0	0	0	0	0	0	-0.000966659	0	0.000250119	0	0	0
1.01667	0	0	0	-0.000966685	0	0.000250142	0	0	0	0	0	0	-0.00096666	0	0.000250116	0	0	0
1.025	0	0	0	-0.000966686	0	0.000250139	0	0	0	0	0	0	-0.00096666	0	0.000250113	0	0	0
1.03333	0	0	0	-0.000966687	0	0.000250137	0	0	0	0	0	0	-0.00096666	0	0.00025011	0	0	0
1.04167	-2.07945	13.7447	0.464005	-0.000966688	0	0.000250134	0	0	0	0	0	0	-0.000966661	0	0.000250107	0	0	0
1.05	-6.7761	32.8499	-0.741368	1.11551	0	-0.258806	-0	0.932956	-0	0	0	0	-0.000966661	0	0.000250104	0	0	0
1.05833	-11.4488	90.8494	-0.588687	1.0887	0	-0.294565	-0	7.98598	-0	0	0	0	-0.000966662	0	0.000250101	0	0	0
1.06667	-11.1521	223.7	3.60002	1.06949	0	-0.306883	-0	13.1739	-0	0	0	0	-0.000966662	0	0.000250098	0	0	0
1.075	-5.19989	455.765	14.8349	1.05693	0	-0.311735	-0	10.2878	-0	0	0	0	-0.000966662	0	0.000250094	0	0	0
1.08333	-7.71221	752.991	34.0218	1.0465	0	-0.313107	0	-2.6702	0	0	0	0	-0.000966663	0	0.000250091	0	0	0
1.09167	-37.7099	1015.18	55.781	1.03783	0	-0.312843	0	-18.9004	0	0	0	0	-0.000966663	0	0.000250088	0	0	0
1.1	-96.1346	1171.18	68.4858	1.03009	0	-0.312507	0	-26.112	0	0	0	0	-0.000966664	0	0.000250085	0	0	0
1.10833	-160.65	1257.89	63.6519	1.02045	0	-0.313139	0	-17.7151	0	0	0	0	-0.000966664	0	0.000250081	0	0	0
1.11667	-202.238	1354.03	46.3286	1.00562	0	-0.313966	0	-0.739315	0	0	0	0	-0.000966665	0	0.000250078	0	0	0
1.125	-206.632	1487.76	31.324	0.985341	0	-0.313171	-0	10.353	-0	0	0	0	-0.000966665	0	0.000250075	0	0	0
1.13333	-183.055	1632.08	27.1303	0.96243	0	-0.310688	-0	8.63236	-0	0	0	0	-0.000966665	0	0.000250071	0	0	0
1.14167	-146.707	1744.96	27.8982	0.939127	0	-0.308282	-0	0.913223	-0	0	0	0	-0.000966666	0	0.000250068	0	0	0
1.15	-105.098	1804.09	23.8077	0.915608	0	-0.307202	0	-2.07258	0	0	0	0	-0.000966666	0	0.000250065	0	0	0
1.15833	-62.4486	1813.33	14.8437	0.891893	0	-0.306867	-0	1.62664	-0	0	0	0	-0.000966667	0	0.000250061	0	0	0
1.16667	-22.2752	1788.09	9.31921	0.868422	0	-0.30569	-0	5.45816	-0	0	0	0	-0.000966667	0	0.000250058	0	0	0
1.175	16.2162	1734.27	11.2324	0.845277	0	-0.303321	-0	5.00628	-0	0	0	0	-0.000966668	0	0.000250054	0	0	0
1.18333	58.8349	1646.11	15.7179	0.821413	0	-0.301227	-0	3.18483	-0	0	0	0	-0.000966668	0	0.000250051	0	0	0
1.19167	107.152	1523.43	18.052	0.795838	0	-0.300761	-0	3.9534	-0	0	0	0	-0.000966668	0	0.000250048	0	0	0
1.2	155.419	1378.32	21.2505	0.769014	0	-0.301586	-0	5.44931	-0	0	0	0	-0.000966669	0	0.000250044	0	0	0
1.20833	196.444	1223.11	30.7666	0.742089	0	-0.30226	-0	2.88301	-0	0	0	0	-0.000966669	0	0.000250041	0	0	0
1.21667	225.287	1059.73	44.9701	0.715731	0	-0.302221	0	-3.81677	0	0	0	0	-0.00096667	0	0.000250037	0	0	0
1.225	238.86	886.548	55.7073	0.689941	0	-0.302495	0	-9.2057	0	0	0	0	-0.00096667	0	0.000250034	0	0	0
1.23333	234.315	709.279	57.5996	0.664356	0	-0.30402	0	-9.24236	0	0	0	0	-0.000966671	0	0.00025003	0	0	0
1.24167	210.172	541.608	52.8241	0.640042	0	-0.305704	0	-5.8445	0	0	0	0	-0.000966671	0	0.000250027	0	0	0
1.25	171.605	396.042	46.1219	0.620766	0	-0.304571	0	-3.28091	0	0	0	0	-0.000966672	0	0.000250023	0	0	0
1.25833	128.029	275.053	38.4927	0.609906	0	-0.298699	0	-2.38731	0	0	0	0	-0.000966672	0	0.00025002	0	0	0
1.26667	87.5629	175.257	28.1395	0.605096	0	-0.289813	0	-0.737683	0	0	0	0	-0.000966673	0	0.000250016	0	0	0
1.275	54.039	97.1545	15.8521	0.600588	0	-0.281179	-0	2.39783	-0	0	0	0	-0.000966673	0	0.000250013	0	0	0
1.28333	28.6386	45.2499	6.18133	0.602012	0	-0.268568	-0	4.10312	-0	0	0	0	-0.000966673	0	0.000250009	0	0	0
1.29167	12.4132	19.8216	2.57142	0.657221	0	-0.212412	-0	1.75118	-0	0	0	0	-0.000966674	0	0.000250005	0	0	0
1.3	4.73363	12.1455	3.31337	-0.00096672	0	0.000250048	0	0	0	0	0	0	-0.000966674	0	0.000250002	0	0	0
1.30833	2.2109	10.0118	3.83237	-0.000966722	0	0.000250046	0	0	0	0	0	0	-0.000966675	0	0.000249998	0	0	0
1.31667	0	0	0	-0.000966723	0	0.000250043	0	0	0	0	0	0	-0.000966675	0	0.000249995	0	0	0
